 http://www.imdb.com/title/tt0116250/

Source: Evita.1996.720p.BluRay.x264-HD4U Thanks!

Subs: Danish, Dutch, English, Spanish.

Sample and Screens included.

General
Complete name                            : Evita-720p MP4 AAC x264 BRRip 1996-CC.mp4
Format                                   : MPEG-4
Format profile                           : Base Media
Codec ID                                 : isom
File size                                : 3.18 GiB
Duration                                 : 2h 14mn
Overall bit rate mode                    : Variable
Overall bit rate                         : 3 380 Kbps
Encoded date                             : UTC 2012-11-14 19:54:42

Video
ID                                       : 1
Format                                   : AVC
Format/Info                              : Advanced Video Codec
Format profile                           : High@L4.1
Format settings, CABAC                   : Yes
Format settings, ReFrames                : 5 frames
Codec ID                                 : avc1
Codec ID/Info                            : Advanced Video Coding
Duration                                 : 2h 14mn
Bit rate                                 : 3 118 Kbps
Maximum bit rate                         : 12.6 Mbps
Width                                    : 1 280 pixels
Height                                   : 528 pixels
Display aspect ratio                     : 2.40:1
Original display aspect ratio            : 2.40:1
Frame rate mode                          : Variable
Frame rate                               : 23.976 fps
Minimum frame rate                       : 7.992 fps
Maximum frame rate                       : 23.981 fps
Color space                              : YUV
Chroma subsampling                       : 4:2:0
Bit depth                                : 8 bits
Scan type                                : Progressive
Bits/(Pixel*Frame)                       : 0.192
Stream size                              : 2.82 GiB (89%)
Writing library                          : x264 core 112

Audio
ID                                       : 2
Format                                   : AAC
Format/Info                              : Advanced Audio Codec
Format profile                           : LC
Codec ID                                 : 40
Duration                                 : 2h 14mn
Bit rate mode                            : Variable
Bit rate                                 : 384 Kbps
Maximum bit rate                         : 518 Kbps
Channel(s)                               : 6 channels
Channel positions                        : Front: L C R, Side: L R, LFE
Sampling rate                            : 48.0 KHz
Compression mode                         : Lossy
Delay relative to video                  : 167ms
Stream size                              : 370 MiB (11%)
Language                                 : English

Enjoy...

Requested by majmi.

Coming soon: Heat, Jay and Silent Bob Strike Back, Donnie Brasco, The Gold Rush...